<?xml version="1.0" encoding="utf-8"?>
<!-- Generator: Adobe Illustrator 24.3.0, SVG Export Plug-In . SVG Version: 6.00 Build 0)  -->
<svg version="1.1" id="Capa_1" xmlns="http://www.w3.org/2000/svg" xmlns:xlink="http://www.w3.org/1999/xlink" x="0px" y="0px"
	 viewBox="0 0 512 512" style="enable-background:new 0 0 512 512;" xml:space="preserve">
<style type="text/css">
	.st0{fill:#03A9F4;}
</style>
<path class="st0" d="M428.2,452.7v-304H83.8v304H428.2 M354.4,9.8h49.3v49.3c36.2-3.5,72.3,6.8,73.8,49.3v344.6
	c0,27.1-22,49.3-49.3,49.3H83.8c-27.1,0-49.3-22-49.3-49.3V108.4c1.7-42.4,37.5-52.8,73.8-49.3V9.8h49.3v49.3h196.9V9.8
	 M168.3,423.6V177.7h49.3v245.8H168.3 M294.6,177.9h49.3v245.5h-49.3V177.9z M221.9,319.7l18.3-18.8L221.9,282l5.7-5.7l24,24.5
	l-24,24.5L221.9,319.7z M243.1,319.7l18.3-18.8L243.1,282l5.7-5.7l24,24.5l-24,24.5L243.1,319.7z M262.1,319.7l18.3-18.8L262.1,282
	l5.7-5.7l24,24.5l-24,24.5L262.1,319.7z"/>
</svg>
